# xmcd CD database file
#
# Track frame offsets:
#	150
#	34260
#	59437
#	75118
#	104723
#	131907
#	158999
#	187727
#	206790
#	232348
#	247697
#	272801
#	292385
#	309161
#	336463
#
# Disc length: 4667 seconds
#
# Revision: 0
# Processed by: cddbd v1.5.2PL0 Copyright (c) Steve Scherf et al.
# Submitted via: CDex 1.51
#
DISCID=e212390f
DTITLE=Shelly Manne - 234 and Modern Jazz Performance Of Songs From My Fair Lady
DYEAR=1962
DGENRE=Jazz
TTITLE0=Take The A Train (234)
TTITLE1=Slowly
TTITLE2=Cherokee
TTITLE3=Avalon
TTITLE4=Me And Some Drums
TTITLE5=The Sicks Of Us
TTITLE6=Lean On Me
TTITLE7=Get Me To The Church On Time (Modern Jazz Performance Of Songs From My Fair Lady)
TTITLE8=On The Street Where You Live
TTITLE9=I've Grown Accustomed To Your Face
TTITLE10=Would'nt it Be Loverly
TTITLE11=Ascott Gavotte
TTITLE12=Show Me
TTITLE13=With A Little Bit Of Luck
TTITLE14=I Could Have Danced All Night
EXTD=YEAR: 1962
EXTT0=
EXTT1=
EXTT2=
EXTT3=
EXTT4=
EXTT5=
EXTT6=
EXTT7=
EXTT8=
EXTT9=
EXTT10=
EXTT11=
EXTT12=
EXTT13=
EXTT14=
PLAYORDER=
